# xmcd CD database file
#
# Track frame offsets:
#	150
#	28824
#	54637
#	73990
#	110924
#	136206
#	162266
#	204792
#	229462
#
# Disc length: 3471 seconds
#
# Revision: 0
# Processed by: cddbd v1.5.2PL0 Copyright (c) Steve Scherf et al.
# Submitted via: CDex 1.70beta2
#
DISCID=860d8d09
DTITLE=Jerry Tilitz - The New York Tapes(1997)
DYEAR=1997
DGENRE=Jazz
TTITLE0=Bankrupt (Jim McNeely) 
TTITLE1=Calamity Anne (Jerry Tlitz)
TTITLE2=A Conversation (Jerry Tilitz/Arnie Lawrence)
TTITLE3=Pathological (Jerry Tilitz)
TTITLE4=Nancy's Chocolate (Jerry Tilitz)
TTITLE5=It Don't Mean A Thing (Duke Ellington)
TTITLE6=Fifth World Blues (Jerry Tilitz)
TTITLE7=Bluefish Avenue (Jerry Tilitz)
TTITLE8=Flatbush Serenade (Jerry Tilitz)
EXTD=YEAR: 1997
EXTT0=
EXTT1=
EXTT2=
EXTT3=
EXTT4=
EXTT5=
EXTT6=
EXTT7=
EXTT8=
PLAYORDER=
